# xmcd
#
# Track frame offsets:
#	223
#	13630
#	28150
#	44224
#	58122
#	69497
#	84797
#	87318
#	97784
#	112600
#	123863
#	138795
#	162891
#	175910
#	192150
#	201329
#
# Disc length: 2809 seconds
#
# Revision: 0
# Processed by: cddbd v1.5.1PL0 Copyright (c) Steve Scherf et al.
# Submitted via: dBpowerAMP V4.0
#
DISCID=ca0af710
DTITLE=William Lee Ellis - The Full Catastrophe
DYEAR=2003
DGENRE=Country
TTITLE0=Dark World Coming
TTITLE1=Paratrooper's Blues
TTITLE2=Jackpot Rag
TTITLE3=John Ate the Locust and the Honey
TTITLE4=Darkness as the Noonday
TTITLE5=That Angel's Trumpet Sound
TTITLE6=(Heaven)
TTITLE7=Evil Witness Song
TTITLE8=In My Time of Dying
TTITLE9='Til the Last Train Comes Along
TTITLE10=Bouncing Ball
TTITLE11=Trouble I Once Knew
TTITLE12=Sushi Lady Blues
TTITLE13=New Boot Blues
TTITLE14=The Good Fight
TTITLE15=All Sorrow Given Over to Christ
EXTD=
EXTT0=
EXTT1=
EXTT2=
EXTT3=
EXTT4=
EXTT5=
EXTT6=
EXTT7=
EXTT8=
EXTT9=
EXTT10=
EXTT11=
EXTT12=
EXTT13=
EXTT14=
EXTT15=
PLAYORDER=
